<svg xmlns="http://www.w3.org/2000/svg" width="48" height="48" viewBox="0 0 32 20"><circle cx="10" cy="10" r="10" fill="#f93232" data-original="#f93232"/><path fill="#fed049" d="M22 0c-2.246 0-4.312.75-5.98 2H16v.014c-.396.298-.76.634-1.107.986h2.214c.308.313.592.648.855 1H14.03a9.932 9.932 0 00-.667 1h5.264c.188.324.365.654.518 1h-6.291a9.833 9.833 0 00-.377 1h7.044c.104.326.186.661.258 1h-7.563c-.067.328-.123.66-.157 1h7.881c.039.328.06.661.06 1h-8c0 .339.027.67.06 1h7.882c-.038.339-.093.672-.162 1h-7.563c.069.341.158.673.261 1h7.044a9.833 9.833 0 01-.377 1h-6.291c.151.344.321.678.509 1h5.264a9.783 9.783 0 01-.669 1H14.03c.266.352.553.687.862 1h2.215a10.05 10.05 0 01-1.107.986A9.937 9.937 0 0022 20c5.523 0 10-4.478 10-10S27.523 0 22 0z" data-original="#fed049"/></svg>